<svg width="24" height="24" viewBox="0 0 24 24" fill="none" xmlns="http://www.w3.org/2000/svg">
<path d="M19.2 8.33333L18.192 18.5976C18.0396 20.1534 17.964 20.9308 17.616 21.5187C17.3108 22.0362 16.8619 22.45 16.326 22.7079C15.7176 23 14.952 23 13.416 23H10.584C9.0492 23 8.2824 23 7.674 22.7067C7.13766 22.449 6.68834 22.0351 6.3828 21.5174C6.0372 20.9308 5.9604 20.1534 5.8068 18.5976L4.8 8.33333M13.8 16.2778V10.1667M10.2 16.2778V10.1667M3 5.27778H8.538M8.538 5.27778L9.0012 2.012C9.1356 1.418 9.6204 1 10.1772 1H13.8228C14.3796 1 14.8632 1.418 14.9988 2.012L15.462 5.27778M8.538 5.27778H15.462M15.462 5.27778H21" stroke="black" stroke-width="1.5" stroke-linecap="round" stroke-linejoin="round"/>
</svg>
