<svg width="22" height="21" viewBox="0 0 22 21" fill="none" xmlns="http://www.w3.org/2000/svg">
<mask id="path-1-inside-1_5_8852" fill="white">
<path fill-rule="evenodd" clip-rule="evenodd" d="M10.1997 0.163993C10.5675 -0.0546691 11.0254 -0.0546695 11.3931 0.163993L21.0199 5.88783C22.0399 6.49429 21.6099 8.05904 20.4232 8.05904H19.9862C19.3737 8.05904 18.8653 8.5323 18.8215 9.14321L18.0561 19.8277C18.0123 20.4386 17.5039 20.9118 16.8914 20.9118H4.67297C4.0605 20.9118 3.55212 20.4386 3.50835 19.8277L2.74287 9.14321C2.69911 8.5323 2.19073 8.05904 1.57825 8.05904H1.16959C-0.0170806 8.05904 -0.447123 6.49429 0.572876 5.88783L10.1997 0.163993ZM10.7964 16.2995C12.3161 16.2995 13.548 15.0676 13.548 13.5479C13.548 12.0283 12.3161 10.7964 10.7964 10.7964C9.2768 10.7964 8.0449 12.0283 8.0449 13.5479C8.0449 15.0676 9.2768 16.2995 10.7964 16.2995Z"/>
</mask>
<path d="M0.572876 5.88783L0.0618148 5.02828L0.572876 5.88783ZM3.50835 19.8277L2.51091 19.8991L3.50835 19.8277ZM18.0561 19.8277L17.0586 19.7562L18.0561 19.8277ZM11.3931 0.163993L11.9042 -0.695552L11.3931 0.163993ZM10.1997 0.163993L9.68863 -0.695551L10.1997 0.163993ZM21.0199 5.88783L21.531 5.02828L21.0199 5.88783ZM21.531 5.02828L11.9042 -0.695552L10.8821 1.02354L20.5089 6.74737L21.531 5.02828ZM19.9862 9.05904H20.4232V7.05904H19.9862V9.05904ZM19.0535 19.8991L19.819 9.21467L17.8241 9.07175L17.0586 19.7562L19.0535 19.8991ZM4.67297 21.9118H16.8914V19.9118H4.67297V21.9118ZM1.74543 9.21467L2.51091 19.8991L4.50579 19.7562L3.74032 9.07175L1.74543 9.21467ZM1.16959 9.05904H1.57825V7.05904H1.16959V9.05904ZM9.68863 -0.695551L0.0618148 5.02828L1.08394 6.74737L10.7108 1.02354L9.68863 -0.695551ZM12.548 13.5479C12.548 14.5153 11.7638 15.2995 10.7964 15.2995V17.2995C12.8683 17.2995 14.548 15.6199 14.548 13.5479H12.548ZM10.7964 11.7964C11.7638 11.7964 12.548 12.5806 12.548 13.5479H14.548C14.548 11.476 12.8683 9.79641 10.7964 9.79641V11.7964ZM9.0449 13.5479C9.0449 12.5806 9.82909 11.7964 10.7964 11.7964V9.79641C8.72452 9.79641 7.0449 11.476 7.0449 13.5479H9.0449ZM10.7964 15.2995C9.82909 15.2995 9.0449 14.5153 9.0449 13.5479H7.0449C7.0449 15.6199 8.72452 17.2995 10.7964 17.2995V15.2995ZM1.16959 7.05904C1.10356 7.05904 1.07758 7.04096 1.06478 7.0305C1.0448 7.01419 1.02084 6.98263 1.00798 6.93585C0.995122 6.88907 0.999595 6.8497 1.00843 6.82547C1.01409 6.80994 1.02718 6.78112 1.08394 6.74737L0.0618148 5.02828C-1.83176 6.15415 -1.03341 9.05904 1.16959 9.05904V7.05904ZM3.74032 9.07175C3.65906 7.93762 2.71528 7.05904 1.57825 7.05904V9.05904C1.66617 9.05904 1.73915 9.12698 1.74543 9.21467L3.74032 9.07175ZM4.67297 19.9118C4.58505 19.9118 4.51208 19.8439 4.50579 19.7562L2.51091 19.8991C2.59216 21.0332 3.53594 21.9118 4.67297 21.9118V19.9118ZM17.0586 19.7562C17.0523 19.8439 16.9794 19.9118 16.8914 19.9118V21.9118C18.0285 21.9118 18.9723 21.0332 19.0535 19.8991L17.0586 19.7562ZM19.9862 7.05904C18.8491 7.05904 17.9054 7.93763 17.8241 9.07175L19.819 9.21467C19.8253 9.12698 19.8982 9.05904 19.9862 9.05904V7.05904ZM11.9042 -0.695552C11.2214 -1.10149 10.3714 -1.10149 9.68863 -0.695551L10.7108 1.02354C10.7635 0.992149 10.8293 0.992149 10.8821 1.02354L11.9042 -0.695552ZM20.5089 6.74737C20.5656 6.78112 20.5787 6.80994 20.5844 6.82547C20.5932 6.8497 20.5977 6.88907 20.5848 6.93585C20.572 6.98264 20.548 7.01419 20.528 7.0305C20.5152 7.04096 20.4893 7.05904 20.4232 7.05904V9.05904C22.6262 9.05904 23.4246 6.15415 21.531 5.02828L20.5089 6.74737Z" fill="black" mask="url(#path-1-inside-1_5_8852)"/>
</svg>
