<svg width="21" height="21" viewBox="0 0 21 21" fill="none" xmlns="http://www.w3.org/2000/svg">
<path d="M2.66873 9.08419C3.10627 4.71207 6.03447 0.666687 10.4284 0.666687C14.5968 0.666687 17.4992 4.3068 17.8379 8.46138C18.0107 10.5812 18.5406 12.7326 19.6902 15.3835C20.0097 16.1204 19.4834 16.963 18.6802 16.963H1.69827C0.853452 16.963 0.329301 16.0383 0.718297 15.2884C1.84747 13.1115 2.45986 11.1713 2.66873 9.08419Z" fill="black"/>
<path d="M13.9013 16.963C13.9013 18.763 12.4421 20.2222 10.642 20.2222C8.84199 20.2222 7.38277 18.763 7.38277 16.963M10.4284 0.666687C14.5968 0.666687 17.4992 4.3068 17.8379 8.46138C18.0107 10.5812 18.5406 12.7326 19.6902 15.3835C20.0097 16.1204 19.4834 16.963 18.6802 16.963H1.69827C0.853452 16.963 0.329301 16.0383 0.718297 15.2884C1.84747 13.1115 2.45986 11.1713 2.66873 9.08419C3.10627 4.71207 6.03447 0.666687 10.4284 0.666687Z" stroke="black" stroke-width="0.888889"/>
</svg>
