<svg width="24" height="24" viewBox="0 0 24 24" fill="none" xmlns="http://www.w3.org/2000/svg">
<path d="M9.08406 17.2196L0.650348 11.3149C0.452155 11.2001 0.28799 11.037 0.173971 10.8416C0.0599526 10.6462 0 10.4253 0 10.2005C0 9.97577 0.0599526 9.75485 0.173971 9.55949C0.28799 9.36412 0.452155 9.20103 0.650348 9.08622L9.08406 3.17793C9.28511 3.06263 9.51386 3.00125 9.74709 3.00002C9.98033 2.99879 10.2098 3.05775 10.4121 3.17091C10.6144 3.28408 10.7824 3.44743 10.899 3.64437C11.0157 3.84131 11.0768 4.06484 11.0762 4.29226V6.59833C13.8456 6.59833 22.1537 6.59833 24 21C19.3843 12.8991 11.0762 13.7992 11.0762 13.7992V16.1052C11.0762 17.1133 9.95735 17.7218 9.08406 17.2214V17.2196Z" fill="black"/>
</svg>
