<svg width="24" height="24" viewBox="0 0 24 24" fill="none" xmlns="http://www.w3.org/2000/svg">
<path d="M9.34069 4.81943C9.38116 4.80193 9.42546 4.7947 9.46951 4.79841C9.51357 4.80212 9.55597 4.81665 9.59281 4.84068C9.62966 4.8647 9.65977 4.89744 9.68038 4.93588C9.70099 4.97433 9.71143 5.01725 9.71076 5.0607V7.13667C9.71076 7.37544 9.80726 7.60442 9.97905 7.77325C10.1508 7.94208 10.3838 8.03692 10.6268 8.03692C11.8487 8.03692 14.3146 8.04593 16.6723 9.51693C18.475 10.6404 20.318 12.6858 21.4264 16.4957C19.5577 14.7258 17.4235 13.7661 15.5548 13.2566C14.4064 12.9442 13.2259 12.7594 12.0356 12.7056C11.5484 12.6831 11.0603 12.6879 10.5736 12.72H10.5498L10.5407 12.7218L10.6268 13.6185L10.5352 12.7218C10.3091 12.7441 10.0995 12.8483 9.94712 13.014C9.79477 13.1797 9.71053 13.3951 9.71076 13.6185V15.6944C9.71076 15.8889 9.50924 16.0113 9.34069 15.9357L2.04202 10.6548L1.96508 10.6044C1.92525 10.5809 1.89228 10.5476 1.8694 10.5079C1.84652 10.4681 1.83449 10.4232 1.83449 10.3776C1.83449 10.3319 1.84652 10.287 1.8694 10.2472C1.89228 10.2075 1.92525 10.1742 1.96508 10.1507L2.04202 10.1003L9.34069 4.81943ZM11.5428 14.4935C11.6686 14.4935 11.8047 14.4971 11.9513 14.5043C12.7464 14.5403 13.8456 14.6592 15.0657 14.9922C17.4949 15.6548 20.3711 17.1564 22.2837 20.5378C22.3872 20.7203 22.552 20.8618 22.7499 20.938C22.9478 21.0142 23.1666 21.0204 23.3686 20.9554C23.5707 20.8905 23.7435 20.7586 23.8574 20.5822C23.9713 20.4058 24.0192 20.1959 23.993 19.9886C23.1429 13.3088 20.5378 9.79421 17.6543 7.99731C15.3735 6.57492 13.0248 6.30124 11.5428 6.24903V5.0607C11.5429 4.68992 11.4413 4.32597 11.2485 4.00726C11.0557 3.68854 10.779 3.42687 10.4475 3.24987C10.116 3.07286 9.74199 2.98708 9.36502 3.00157C8.98804 3.01607 8.62203 3.1303 8.30562 3.33222L0.988627 8.62568C0.686128 8.81126 0.436658 9.06944 0.263703 9.37593C0.0907489 9.68241 0 10.0271 0 10.3776C0 10.728 0.0907489 11.0727 0.263703 11.3792C0.436658 11.6857 0.686128 11.9439 0.988627 12.1295L8.30562 17.4229C8.62203 17.6248 8.98804 17.7391 9.36502 17.7536C9.74199 17.7681 10.116 17.6823 10.4475 17.5053C10.779 17.3283 11.0557 17.0666 11.2485 16.7479C11.4413 16.4292 11.5429 16.0652 11.5428 15.6944V14.4935Z" fill="black"/>
</svg>
