<svg width="100" height="100" viewBox="0 0 100 100" fill="none" xmlns="http://www.w3.org/2000/svg">
<g clip-path="url(#clip0_247_842)">
<g clip-path="url(#clip1_247_842)">
<rect width="50" height="50" transform="translate(50)" fill="black"/>
<path d="M56.6 69.4C59.6667 69.4 62.45 68.95 64.95 68.05C67.4833 67.15 69.3667 66.2667 70.6 65.4L77 78.1C75.4333 79.4333 72.75 80.7833 68.95 82.15C65.1833 83.5167 60.7 84.2 55.5 84.2C50.6333 84.2 46.0667 83.35 41.8 81.65C37.5333 79.95 33.7667 77.5667 30.5 74.5C27.2667 71.4 24.7167 67.7833 22.85 63.65C21.0167 59.4833 20.1 54.9667 20.1 50.1C20.1 45.2333 21.0167 40.7167 22.85 36.55C24.6833 32.35 27.2167 28.7 30.45 25.6C33.7167 22.5 37.4833 20.1 41.75 18.4C46.05 16.6667 50.6333 15.8 55.5 15.8C60.7 15.8 65.1833 16.4833 68.95 17.85C72.75 19.2167 75.4333 20.5667 77 21.9L70.6 34.6C69.3667 33.7 67.4833 32.8167 64.95 31.95C62.45 31.05 59.6667 30.6 56.6 30.6C53.2 30.6 50.2333 31.1333 47.7 32.2C45.1667 33.2333 43.05 34.6667 41.35 36.5C39.65 38.3333 38.3833 40.4 37.55 42.7C36.7167 45 36.3 47.4167 36.3 49.95C36.3 52.5167 36.7167 54.9667 37.55 57.3C38.3833 59.6 39.65 61.6667 41.35 63.5C43.05 65.3333 45.1667 66.7833 47.7 67.85C50.2333 68.8833 53.2 69.4 56.6 69.4Z" fill="white"/>
</g>
<g clip-path="url(#clip2_247_842)">
<rect width="50" height="50" transform="translate(0 50)" fill="black"/>
<path d="M56.6 69.4C59.6667 69.4 62.45 68.95 64.95 68.05C67.4833 67.15 69.3667 66.2667 70.6 65.4L77 78.1C75.4333 79.4333 72.75 80.7833 68.95 82.15C65.1833 83.5167 60.7 84.2 55.5 84.2C50.6333 84.2 46.0667 83.35 41.8 81.65C37.5333 79.95 33.7667 77.5667 30.5 74.5C27.2667 71.4 24.7167 67.7833 22.85 63.65C21.0167 59.4833 20.1 54.9667 20.1 50.1C20.1 45.2333 21.0167 40.7167 22.85 36.55C24.6833 32.35 27.2167 28.7 30.45 25.6C33.7167 22.5 37.4833 20.1 41.75 18.4C46.05 16.6667 50.6333 15.8 55.5 15.8C60.7 15.8 65.1833 16.4833 68.95 17.85C72.75 19.2167 75.4333 20.5667 77 21.9L70.6 34.6C69.3667 33.7 67.4833 32.8167 64.95 31.95C62.45 31.05 59.6667 30.6 56.6 30.6C53.2 30.6 50.2333 31.1333 47.7 32.2C45.1667 33.2333 43.05 34.6667 41.35 36.5C39.65 38.3333 38.3833 40.4 37.55 42.7C36.7167 45 36.3 47.4167 36.3 49.95C36.3 52.5167 36.7167 54.9667 37.55 57.3C38.3833 59.6 39.65 61.6667 41.35 63.5C43.05 65.3333 45.1667 66.7833 47.7 67.85C50.2333 68.8833 53.2 69.4 56.6 69.4Z" fill="white"/>
</g>
<g clip-path="url(#clip3_247_842)">
<rect width="50" height="50" transform="translate(50 50)" fill="white"/>
<path d="M56.6 69.4C59.6667 69.4 62.45 68.95 64.95 68.05C67.4833 67.15 69.3667 66.2667 70.6 65.4L77 78.1C75.4333 79.4333 72.75 80.7833 68.95 82.15C65.1833 83.5167 60.7 84.2 55.5 84.2C50.6333 84.2 46.0667 83.35 41.8 81.65C37.5333 79.95 33.7667 77.5667 30.5 74.5C27.2667 71.4 24.7167 67.7833 22.85 63.65C21.0167 59.4833 20.1 54.9667 20.1 50.1C20.1 45.2333 21.0167 40.7167 22.85 36.55C24.6833 32.35 27.2167 28.7 30.45 25.6C33.7167 22.5 37.4833 20.1 41.75 18.4C46.05 16.6667 50.6333 15.8 55.5 15.8C60.7 15.8 65.1833 16.4833 68.95 17.85C72.75 19.2167 75.4333 20.5667 77 21.9L70.6 34.6C69.3667 33.7 67.4833 32.8167 64.95 31.95C62.45 31.05 59.6667 30.6 56.6 30.6C53.2 30.6 50.2333 31.1333 47.7 32.2C45.1667 33.2333 43.05 34.6667 41.35 36.5C39.65 38.3333 38.3833 40.4 37.55 42.7C36.7167 45 36.3 47.4167 36.3 49.95C36.3 52.5167 36.7167 54.9667 37.55 57.3C38.3833 59.6 39.65 61.6667 41.35 63.5C43.05 65.3333 45.1667 66.7833 47.7 67.85C50.2333 68.8833 53.2 69.4 56.6 69.4Z" fill="black"/>
</g>
<g clip-path="url(#clip4_247_842)">
<rect width="50" height="50" fill="white"/>
<path d="M56.6 69.4C59.6667 69.4 62.45 68.95 64.95 68.05C67.4833 67.15 69.3667 66.2667 70.6 65.4L77 78.1C75.4333 79.4333 72.75 80.7833 68.95 82.15C65.1833 83.5167 60.7 84.2 55.5 84.2C50.6333 84.2 46.0667 83.35 41.8 81.65C37.5333 79.95 33.7667 77.5667 30.5 74.5C27.2667 71.4 24.7167 67.7833 22.85 63.65C21.0167 59.4833 20.1 54.9667 20.1 50.1C20.1 45.2333 21.0167 40.7167 22.85 36.55C24.6833 32.35 27.2167 28.7 30.45 25.6C33.7167 22.5 37.4833 20.1 41.75 18.4C46.05 16.6667 50.6333 15.8 55.5 15.8C60.7 15.8 65.1833 16.4833 68.95 17.85C72.75 19.2167 75.4333 20.5667 77 21.9L70.6 34.6C69.3667 33.7 67.4833 32.8167 64.95 31.95C62.45 31.05 59.6667 30.6 56.6 30.6C53.2 30.6 50.2333 31.1333 47.7 32.2C45.1667 33.2333 43.05 34.6667 41.35 36.5C39.65 38.3333 38.3833 40.4 37.55 42.7C36.7167 45 36.3 47.4167 36.3 49.95C36.3 52.5167 36.7167 54.9667 37.55 57.3C38.3833 59.6 39.65 61.6667 41.35 63.5C43.05 65.3333 45.1667 66.7833 47.7 67.85C50.2333 68.8833 53.2 69.4 56.6 69.4Z" fill="black"/>
</g>
</g>
<defs>
<clipPath id="clip0_247_842">
<rect width="100" height="100" fill="white"/>
</clipPath>
<clipPath id="clip1_247_842">
<rect width="50" height="50" fill="white" transform="translate(50)"/>
</clipPath>
<clipPath id="clip2_247_842">
<rect width="50" height="50" fill="white" transform="translate(0 50)"/>
</clipPath>
<clipPath id="clip3_247_842">
<rect width="50" height="50" fill="white" transform="translate(50 50)"/>
</clipPath>
<clipPath id="clip4_247_842">
<rect width="50" height="50" fill="white"/>
</clipPath>
</defs>
</svg>
