<svg width="24" height="24" viewBox="0 0 24 24" fill="none" xmlns="http://www.w3.org/2000/svg">
<g clip-path="url(#clip0_350_947)">
<path d="M16.4367 1.1405C17.1354 0.441617 18.0738 0.0346416 19.0616 0.0021115C20.0494 -0.0304186 21.0125 0.313932 21.7558 0.965325L21.9426 1.1405L22.8601 2.05789C23.5586 2.75654 23.9654 3.69463 23.9979 4.68204C24.0304 5.66944 23.6863 6.63228 23.0352 7.37538L22.8601 7.56223L8.31081 22.112C8.1051 22.3177 7.8559 22.4747 7.58154 22.5714L7.37132 22.6324L1.59159 23.9663C1.38908 24.0134 1.17821 24.0111 0.976753 23.9597C0.775293 23.9083 0.589137 23.8092 0.433962 23.6708C0.278788 23.5325 0.159138 23.3588 0.0850883 23.1645C0.0110387 22.9703 -0.0152422 22.7611 0.00845893 22.5545L0.0344119 22.4079L1.3671 16.6271C1.43293 16.3436 1.56153 16.0785 1.74341 15.8512L1.88745 15.689L16.4367 1.1405ZM15.5 4.5L3 17L2 22L7 20.9715L19.5 8.5L15.5 4.5ZM20.1077 1.87745C19.8843 1.65404 19.377 1.51983 19.0616 1.5C18.7462 1.48017 18.4345 1.57609 18.1848 1.76975L18.0628 1.87745L16.5 3.5L20.5 7.5L22.1225 5.83606C22.346 5.61262 22.4802 5.19337 22.5 4.87803C22.5198 4.56268 22.4239 4.25093 22.2302 4.00128L20.1077 1.87745Z" fill="black"/>
</g>
<defs>
<clipPath id="clip0_350_947">
<rect width="24" height="24" fill="white"/>
</clipPath>
</defs>
</svg>
