<svg width="24" height="24" viewBox="0 0 24 24" fill="none" xmlns="http://www.w3.org/2000/svg">
<path d="M10.9 7.5C10.9 9.74396 9.21318 11.5 7.2 11.5C5.18682 11.5 3.5 9.74396 3.5 7.5C3.5 5.25604 5.18682 3.5 7.2 3.5C9.21318 3.5 10.9 5.25604 10.9 7.5ZM7.2 14.4286C8.1676 14.4286 9.07363 14.1864 9.88752 13.7857H10.08C12.1569 13.7857 13.9 15.602 13.9 17.9143V19.0714C13.9 19.8931 13.2857 20.5 12.6 20.5H1.8C1.11432 20.5 0.5 19.8931 0.5 19.0714V17.9143C0.5 15.602 2.24307 13.7857 4.32 13.7857H4.51293C5.32907 14.186 6.23166 14.4286 7.2 14.4286ZM21.1 8.14286C21.1 10.0292 19.6794 11.5 18 11.5C16.3206 11.5 14.9 10.0292 14.9 8.14286C14.9 6.25648 16.3206 4.78571 18 4.78571C19.6794 4.78571 21.1 6.25648 21.1 8.14286ZM18 14.1071C18.6258 14.1071 19.2082 13.9764 19.7453 13.7857H19.8C21.8132 13.7857 23.5 15.5418 23.5 17.7857C23.5 18.6074 22.8857 19.2143 22.2 19.2143H16.1V17.9143C16.1 16.4677 15.6379 15.1395 14.8747 14.0676C15.2903 13.8875 15.7344 13.7857 16.2 13.7857H16.2547C16.7918 13.9764 17.3742 14.1071 18 14.1071Z" stroke="black"/>
</svg>
