<svg width="24" height="24" viewBox="0 0 24 24" fill="none" xmlns="http://www.w3.org/2000/svg">
<path d="M7.2 12C9.52125 12 11.4 9.98705 11.4 7.5C11.4 5.01295 9.52125 3 7.2 3C4.87875 3 3 5.01295 3 7.5C3 9.98705 4.87875 12 7.2 12ZM10.08 13.2857H9.76875C8.98875 13.6875 8.1225 13.9286 7.2 13.9286C6.2775 13.9286 5.415 13.6875 4.63125 13.2857H4.32C1.935 13.2857 0 15.3589 0 17.9143V19.0714C0 20.1362 0.80625 21 1.8 21H12.6C13.5938 21 14.4 20.1362 14.4 19.0714V17.9143C14.4 15.3589 12.465 13.2857 10.08 13.2857ZM18 12C19.9875 12 21.6 10.2723 21.6 8.14286C21.6 6.01339 19.9875 4.28571 18 4.28571C16.0125 4.28571 14.4 6.01339 14.4 8.14286C14.4 10.2723 16.0125 12 18 12ZM19.8 13.2857H19.6575C19.1363 13.4786 18.585 13.6071 18 13.6071C17.415 13.6071 16.8638 13.4786 16.3425 13.2857H16.2C15.435 13.2857 14.73 13.5228 14.1113 13.9045C15.0263 14.9612 15.6 16.3634 15.6 17.9143V19.4571C15.6 19.5455 15.5813 19.6299 15.5775 19.7143H22.2C23.1938 19.7143 24 18.8504 24 17.7857C24 15.2987 22.1213 13.2857 19.8 13.2857Z" fill="black"/>
</svg>
