<svg width="22" height="21" viewBox="0 0 22 21" fill="none" xmlns="http://www.w3.org/2000/svg">
<path fill-rule="evenodd" clip-rule="evenodd" d="M10.1997 0.163993C10.5675 -0.0546691 11.0254 -0.0546695 11.3931 0.163993L21.0199 5.88783C22.0399 6.49429 21.6099 8.05904 20.4232 8.05904H19.9862C19.3737 8.05904 18.8653 8.5323 18.8215 9.14321L18.0561 19.8277C18.0123 20.4386 17.5039 20.9118 16.8914 20.9118H4.67297C4.0605 20.9118 3.55212 20.4386 3.50835 19.8277L2.74287 9.14321C2.69911 8.5323 2.19073 8.05904 1.57825 8.05904H1.16959C-0.0170806 8.05904 -0.447123 6.49429 0.572876 5.88783L10.1997 0.163993ZM10.7964 16.2995C12.3161 16.2995 13.548 15.0676 13.548 13.5479C13.548 12.0283 12.3161 10.7964 10.7964 10.7964C9.2768 10.7964 8.0449 12.0283 8.0449 13.5479C8.0449 15.0676 9.2768 16.2995 10.7964 16.2995Z" fill="black"/>
</svg>
