<svg width="24" height="24" viewBox="0 0 24 24" fill="none" xmlns="http://www.w3.org/2000/svg">
<path d="M11.5932 6.22925L12 6.6762L12.4068 6.22925C14.0239 4.45231 15.4604 3.50866 16.6764 3.12925C17.8744 2.75545 18.8795 2.9209 19.7011 3.41216C21.3919 4.42313 22.45 6.9209 22.45 9.49735C22.45 11.9194 21.0179 14.1554 19.1154 16.046C17.2233 17.9262 14.9435 19.3869 13.4203 20.2543C12.5336 20.7593 11.4664 20.7593 10.5797 20.2543C9.05647 19.3869 6.77669 17.9262 4.88463 16.046C2.98212 14.1554 1.55 11.9194 1.55 9.49735C1.55 6.9209 2.60811 4.42313 4.29888 3.41216C5.12048 2.9209 6.12561 2.75545 7.32363 3.12925C8.53962 3.50866 9.97606 4.45231 11.5932 6.22925Z" stroke="black" stroke-width="1.1"/>
</svg>
